<svg version="1.1" id="Layer_1" xmlns="http://www.w3.org/2000/svg" x="0" y="0" viewBox="0 0 12.1 14.1" xml:space="preserve"><style>.st0{fill-rule:evenodd;clip-rule:evenodd}.st0,.st1{fill:#004699}</style><path class="st0" d="M5.9 12.9L0 7l5.9-5.8z"/><path class="st0" d="M0 4h3v6H0z"/><path class="st1" d="M7.5 3.4l-.7.7c.8.8 1.3 1.8 1.3 2.9s-.5 2.2-1.3 3l.7.7c1-.9 1.6-2.2 1.6-3.6 0-1.5-.6-2.8-1.6-3.7z"/><path class="st1" d="M9.7 1.3L9 2c1.3 1.3 2.1 3.1 2.1 5 0 2-.8 3.8-2.1 5l.7.7c1.5-1.5 2.4-3.5 2.4-5.7s-.9-4.2-2.4-5.7z"/></svg>