<?xml version="1.0" encoding="UTF-8"?>
<svg width="44px" height="44px" viewBox="0 0 44 44" version="1.1" xmlns="http://www.w3.org/2000/svg" xmlns:xlink="http://www.w3.org/1999/xlink">
    <!-- Generator: Sketch 63.1 (92452) - https://sketch.com -->
    <title>Annoucement</title>
    <desc>Created with Sketch.</desc>
    <g id="Annoucement" stroke="none" stroke-width="1" fill="none" fill-rule="evenodd">
        <g id="Icon/32/Announcement--" transform="translate(6.000000, 12.000000)" fill="#000000">
            <path d="M23,-2.48689958e-14 L23,11.61 C24.8016804,12.232399 26.0104538,13.9288435 26.0104538,15.835 C26.0104538,17.7411565 24.8016804,19.437601 23,20.06 L23,20.06 L23,31.68 L12.58,26.09 L7.42,31.25 L4.59,28.42 L8.89,24.12 L7.43,23.34 L6.41264819e-13,23.34 L6.41264819e-13,8.34 L7.43,8.34 L23,-2.48689958e-14 Z M19,6.68 L10,11.5 L10,20.18 L19,25 L19,6.68 Z M27.698417,19.1161521 L30.7566309,22.052975 L29.3713371,23.4955286 L26.3131233,20.5587058 L27.698417,19.1161521 Z M8,12.34 L4,12.34 L4,19.34 L8,19.34 L8,12.34 Z M32,14.84 L32,16.84 L28,16.84 L28,14.84 L32,14.84 Z M29.3529065,8.06812304 L30.7671201,9.4823366 L27.7053477,12.544109 L26.2911342,11.1298954 L29.3529065,8.06812304 Z" id="Combined-Shape"></path>
        </g>
    </g>
</svg>