<?xml version="1.0" encoding="UTF-8"?>
<svg width="44px" height="44px" viewBox="0 0 44 44" version="1.1" xmlns="http://www.w3.org/2000/svg" xmlns:xlink="http://www.w3.org/1999/xlink">
    <!-- Generator: Sketch 63.1 (92452) - https://sketch.com -->
    <title>Car</title>
    <desc>Created with Sketch.</desc>
    <g id="Car" stroke="none" stroke-width="1" fill="none" fill-rule="evenodd">
        <g id="Icon/32/Car" transform="translate(6.000000, 12.000000)" fill="#000000">
            <path d="M24,20 C25.6568542,20 27,21.3431458 27,23 C27,24.6568542 25.6568542,26 24,26 C22.3431458,26 21,24.6568542 21,23 C21,21.3431458 22.3431458,20 24,20 Z M7,20 C8.65685425,20 10,21.3431458 10,23 C10,24.6568542 8.65685425,26 7,26 C5.34314575,26 4,24.6568542 4,23 C4,21.3431458 5.34314575,20 7,20 Z M19,7 L26,14 L32,14 L32,23 L29,23 C29,20.2385763 26.7614237,18 24,18 C21.2385763,18 19,20.2385763 19,23 L12,23 C12,20.2385763 9.76142375,18 7,18 C4.23857625,18 2,20.2385763 2,23 L-5.68434189e-14,23 L-5.68434189e-14,14 L7,7 L19,7 Z M18,9 L13,9 L13,14 L22.9619141,14 L18,9 Z M11,9 L8,9 L3,14 L11,14 L11,9 Z" id="Combined-Shape"></path>
        </g>
    </g>
</svg>