<svg xmlns="http://www.w3.org/2000/svg" xmlns:xlink="http://www.w3.org/1999/xlink" viewBox="0 0 24 24">
  <defs>
    <path id="a" d="M-5.9 -6H30.1V30H-5.9z"/>
  </defs>
  <defs>
    <path id="c" d="M12.1,3c-5,0-9,4-9,9s4,9,9,9s9-4,9-9c0-2.4-0.9-4.7-2.6-6.4C16.7,3.9,14.4,3,12.1,3L12.1,3z M12.6,18.8 v-1.1h-1.1v1.1c-3.3-0.3-5.8-2.9-6.1-6.1h1.1v-1.1H5.4c0.2-3.3,2.9-5.9,6.1-6.1v1.1h1.1V5.3c3.3,0.2,5.9,2.9,6.1,6.1h-1.1v1.1 h1.1C18.5,15.9,15.9,18.5,12.6,18.8L12.6,18.8z M12.6,11.4h2.3v1.1h-3.4V8.1h1.1V11.4L12.6,11.4z"/>
  </defs>
  <clipPath id="b">
    <use overflow="visible" xlink:href="#a"/>
  </clipPath>
  <clipPath id="d" clip-path="url(#b)">
    <use overflow="visible" xlink:href="#c"/>
  </clipPath>
  <path fill="#b4b4b4" d="M-11.6 -11.6H35.699999999999996V35.699999999999996H-11.6z" clip-path="url(#d)"/>
</svg>
