<?xml version="1.0" encoding="UTF-8"?>
<svg width="44px" height="44px" viewBox="0 0 44 44" version="1.1" xmlns="http://www.w3.org/2000/svg" xmlns:xlink="http://www.w3.org/1999/xlink">
    <!-- Generator: Sketch 63.1 (92452) - https://sketch.com -->
    <title>Openingshour</title>
    <desc>Created with Sketch.</desc>
    <g id="Openingshour" stroke="none" stroke-width="1" fill="none" fill-rule="evenodd">
        <g id="Icon/32/Opening-Hours--" transform="translate(6.000000, 12.000000)" fill="#000000">
            <path d="M16.678983,3.55271368e-15 C23.3634598,0.00564806112 28.7808893,5.42307766 28.7865374,12.1075544 C28.7865374,21.234315 18.3588806,30.5454545 17.9081763,30.9142125 L17.9081763,30.9142125 L16.678983,32 L15.4497896,30.9142125 C14.9990854,30.5454545 4.57142857,21.234315 4.57142857,12.1075544 C4.57707663,5.42307766 9.99450623,0.00564806112 16.678983,3.55271368e-15 Z M17.7033108,3.80025608 L17.7033108,5.96158771 L15.6546552,5.96158771 L15.6546552,3.80025608 C11.4605417,4.32144752 8.30900548,7.88119103 8.29998171,12.1075544 L8.29998171,12.1075544 L10.5330163,12.1075544 L10.5330163,14.15621 L8.48436071,14.15621 C9.57014816,19.021767 13.9337845,24.2253521 16.678983,26.950064 C18.9632339,24.6658131 23.7468447,19.3700384 24.8736053,14.15621 L24.8736053,14.15621 L22.8249497,14.15621 L22.8249497,12.1075544 L25.0579843,12.1075544 C25.0489605,7.88119103 21.8974243,4.32144752 17.7033108,3.80025608 L17.7033108,3.80025608 Z M17.7033108,9.03457106 L17.7033108,12.1075544 L19.7519663,12.1075544 L19.7519663,14.15621 L15.6546552,14.15621 L15.6546552,9.03457106 L17.7033108,9.03457106 Z" id="Combined-Shape"></path>
        </g>
    </g>
</svg>