<?xml version="1.0" encoding="UTF-8"?>
<svg width="44px" height="44px" viewBox="0 0 44 44" version="1.1" xmlns="http://www.w3.org/2000/svg" xmlns:xlink="http://www.w3.org/1999/xlink">
    <!-- Generator: Sketch 63.1 (92452) - https://sketch.com -->
    <title>Paspoort</title>
    <desc>Created with Sketch.</desc>
    <g id="Paspoort" stroke="none" stroke-width="1" fill="none" fill-rule="evenodd">
        <g id="Icon/32/Passport--" transform="translate(6.000000, 12.000000)" fill="#000000">
            <path d="M23.2857143,0 L23.2857143,4 L28.2857143,4 L28.2857143,32 L2.28571429,32 L2.28571429,4 L23.2857143,0 Z M24.2857143,8 L6.28571429,8 L6.28571429,28 L24.2857143,28 L24.2857143,8 Z M17.2857143,19 C19.5857143,19 21.2857143,20 21.2857143,23 L21.2857143,23 L21.2857143,24 L9.28571429,24 L9.28571429,23 C9.28571429,20 10.9757143,19 13.2857143,19 L13.2857143,19 Z M15.2857143,12.02 C16.9370457,12.02 18.2757143,13.3586686 18.2757143,15.01 C18.2757143,16.6613314 16.9370457,18 15.2857143,18 C13.6343829,18 12.2957143,16.6613314 12.2957143,15.01 C12.2957143,13.3586686 13.6343829,12.02 15.2857143,12.02 Z" id="Combined-Shape"></path>
        </g>
    </g>
</svg>