<svg xmlns="http://www.w3.org/2000/svg" width="30" height="30" viewBox="0 0 30 30"><g fill="none" stroke="#EC0000" stroke-miterlimit="10" stroke-width="1"><rect width="30" height="30" stroke="none"/><rect x="0.5" y="0.5" width="29" height="29" fill="none"/></g><g transform="translate(5 5)"><path d="M10.509,19.774h0L8.594,17.868A62.724,62.724,0,0,1,2.762,12.2C.852,9.968,0,8.078,0,6.07A5.988,5.988,0,0,1,6.07,0,6.58,6.58,0,0,1,10.5,1.762,6.57,6.57,0,0,1,14.93,0,5.988,5.988,0,0,1,21,6.07c0,2.007-.852,3.9-2.762,6.129a61.922,61.922,0,0,1-5.827,5.664l-1.9,1.91ZM6.07,2.625A3.37,3.37,0,0,0,2.625,6.07c0,2.851,3.094,5.652,7.776,9.893l.1.1.1-.1c4.683-4.241,7.777-7.043,7.777-9.893A3.37,3.37,0,0,0,14.93,2.625a3.822,3.822,0,0,0-3.5,2.324H9.585A3.852,3.852,0,0,0,6.07,2.625Z" transform="translate(0 0.656)" fill="#EC0000"/></g></svg>
