<svg xmlns="http://www.w3.org/2000/svg" width="30" height="30" viewBox="0 0 30 30"><g fill="none" stroke="#EC0000" stroke-miterlimit="10" stroke-width="1"><rect width="30" height="30" stroke="none"/><rect x="0.5" y="0.5" width="29" height="29" fill="none"/></g><g transform="translate(5 5)"><path d="M0,21H0l1.476-5.392a10.406,10.406,0,1,1,4.041,3.945L0,21Zm5.772-3.331h0a8.661,8.661,0,0,0,13.371-7.257,8.649,8.649,0,1,0-17.3-.007,8.734,8.734,0,0,0,1.528,4.929L2.5,18.527l3.274-.858ZM13.2,15.411a3.279,3.279,0,0,1-1.007-.153,15.131,15.131,0,0,1-1.482-.548,11.259,11.259,0,0,1-4.395-3.86l-.047-.066,0,0A4.962,4.962,0,0,1,5.206,8.095a2.866,2.866,0,0,1,.858-2.113l.052-.056A.945.945,0,0,1,6.809,5.6l.5.009h.075c.129,0,.324,0,.51.446.068.164.166.4.271.658.228.555.486,1.184.531,1.273a.477.477,0,0,1,.022.456l-.038.076a1.412,1.412,0,0,1-.225.356c-.044.051-.089.107-.134.161-.088.107-.179.218-.257.3-.125.125-.267.267-.113.53a7.748,7.748,0,0,0,1.446,1.8,6.739,6.739,0,0,0,1.919,1.213c.072.031.129.056.172.077a.645.645,0,0,0,.284.084.36.36,0,0,0,.28-.148c.19-.217.661-.775.824-1.019a.36.36,0,0,1,.306-.2.858.858,0,0,1,.279.067c.243.089,1.532.723,1.777.846l.138.068a.844.844,0,0,1,.36.236,2.167,2.167,0,0,1-.151,1.237,2.667,2.667,0,0,1-1.755,1.236A4.293,4.293,0,0,1,13.2,15.411Z" transform="translate(0 0)" fill="#EC0000"/></g></svg>
