<svg xmlns="http://www.w3.org/2000/svg" width="30" height="30" viewBox="0 0 30 30"><g fill="none" stroke="#EC0000" stroke-miterlimit="10" stroke-width="1"><rect width="30" height="30" stroke="none"/><rect x="0.5" y="0.5" width="29" height="29" fill="none"/></g><g transform="translate(5 5)"><path d="M6.7,16.985a13.7,13.7,0,0,1-6.7-1.8H1.1a9,9,0,0,0,5.3-1.9,4.3,4.3,0,0,1-4-3h.8l1.2-.2a4.4,4.4,0,0,1-3.5-4.2h0a3.2,3.2,0,0,0,1.9.5A4.4,4.4,0,0,1,1.5.885a12.3,12.3,0,0,0,8.8,4.5,3.4,3.4,0,0,1-.1-1,4.2,4.2,0,0,1,7.4-2.9,8.6,8.6,0,0,0,2.8-1.1,3.9,3.9,0,0,1-1.9,2.4l2.5-.7a7.3,7.3,0,0,1-2.1,2.2v.5a12.1,12.1,0,0,1-12.2,12.2" transform="translate(0 1.969)" fill="#EC0000"/></g></svg>
