<svg xmlns="http://www.w3.org/2000/svg" width="30" height="30" viewBox="0 0 30 30"><g fill="none" stroke="#767676" stroke-miterlimit="10" stroke-width="1"><rect width="30" height="30" stroke="none"/><rect x="0.5" y="0.5" width="29" height="29" fill="none"/></g><g transform="translate(5 5)"><path d="M4.594,0A1.313,1.313,0,0,1,5.2,2.477l.357,1.546a5.917,5.917,0,0,1,5.8,2.371l2.581-1.452a3.284,3.284,0,1,1,.644,1.143L12,7.538a5.921,5.921,0,0,1-.179,4.995l1.1.644a1.961,1.961,0,1,1-.331.566l-1.1-.643a5.912,5.912,0,0,1-7.415,2.1L2.2,18.721a1.308,1.308,0,1,1-.58-.309L3.5,14.893A5.908,5.908,0,0,1,4.916,4.17L4.559,2.625A1.313,1.313,0,0,1,4.594,0Z" fill="#767676"/></g></svg>