<svg xmlns="http://www.w3.org/2000/svg" width="30" height="30" viewBox="0 0 30 30"><g fill="none" stroke="#767676" stroke-miterlimit="10" stroke-width="1"><rect width="30" height="30" stroke="none"/><rect x="0.5" y="0.5" width="29" height="29" fill="none"/></g><g transform="translate(5 5)"><path d="M13.781,9.188H10.106V7.442h3.675a2.848,2.848,0,1,0,0-5.7H10.106V0h3.675a4.594,4.594,0,1,1,0,9.188Zm-5.512,0H4.594A4.594,4.594,0,0,1,4.594,0H8.269V1.746H4.594a2.848,2.848,0,1,0,0,5.7H8.269V9.187ZM12.6,5.25H5.25V3.938H12.6V5.249Z" transform="translate(1.313 5.906)" fill="#767676"/></g></svg>
