<svg xmlns="http://www.w3.org/2000/svg" width="30" height="30" viewBox="0 0 30 30"><g fill="none" stroke="#767676" stroke-miterlimit="10" stroke-width="1"><rect width="30" height="30" stroke="none"/><rect x="0.5" y="0.5" width="29" height="29" fill="none"/></g><g transform="translate(5 5)"><path d="M14.148,21a4.062,4.062,0,0,1-1.657-.354,5.47,5.47,0,0,1-2.759-3.588A4.059,4.059,0,0,0,8,14.987,9.625,9.625,0,0,1,5.124,11.8,8.348,8.348,0,0,1,4.042,7.862,7,7,0,0,1,11.117.788a7,7,0,0,1,7.074,7.074H16.17a5.053,5.053,0,0,0-10.106,0,6.308,6.308,0,0,0,.829,2.971,7.654,7.654,0,0,0,2.337,2.551l.008.006.026.02a5.909,5.909,0,0,1,2.389,3.012,3.514,3.514,0,0,0,1.728,2.405,1.915,1.915,0,0,0,.768.151,2.023,2.023,0,0,0,2.021-2.021h2.021A4.047,4.047,0,0,1,14.148,21ZM3.254,15.725h0A11.125,11.125,0,0,1,3.254,0L4.689,1.435A9.1,9.1,0,0,0,4.679,14.3L3.255,15.724Zm7.862-5.336a2.527,2.527,0,1,1,2.526-2.527A2.53,2.53,0,0,1,11.117,10.389Z" transform="translate(1.313 0)" fill="#767676"/></g></svg>