<svg xmlns="http://www.w3.org/2000/svg" width="30" height="30" viewBox="0 0 30 30"><g fill="none" stroke="#EC0000" stroke-miterlimit="10" stroke-width="1"><rect width="30" height="30" stroke="none"/><rect x="0.5" y="0.5" width="29" height="29" fill="none"/></g><g transform="translate(5 5)"><path d="M11.518,21H7.338V7.393h3.985V9.337h.1A4.378,4.378,0,0,1,15.236,7.1c.056,0,.113,0,.169,0,1.992,0,3.344.612,4.13,1.871a8.682,8.682,0,0,1,.923,4.641V21H16.28V14.391c0-1.381,0-3.693-2.236-3.693A2.139,2.139,0,0,0,11.979,11.8a5.205,5.205,0,0,0-.462,2.49V21Zm-7,0H.341V7.393H4.52V21ZM2.479,5.452A2.418,2.418,0,0,1,.795,4.773,2.444,2.444,0,0,1,.049,3.02a2.527,2.527,0,1,1,4.957,0,2.447,2.447,0,0,1-.712,1.718,2.414,2.414,0,0,1-1.718.712Z" transform="translate(-0.001 0)" fill="#EC0000"/></g></svg>
