<?xml version="1.0" encoding="utf-8"?>
<!-- Generator: Adobe Illustrator 27.0.0, SVG Export Plug-In . SVG Version: 6.00 Build 0)  -->
<svg version="1.1" id="Laag_1" xmlns="http://www.w3.org/2000/svg" xmlns:xlink="http://www.w3.org/1999/xlink" x="0px" y="0px"
	 viewBox="0 0 1024 1024" style="enable-background:new 0 0 1024 1024;" xml:space="preserve">
<path d="M668.9,740.1c0-55.9-28.8-105-72.2-133.5V204.7c0-48.5-38.9-87.9-87.4-87.9c-48.5,0-87.4,39.3-87.4,87.9v401.9
	c-43.5,28.5-72.2,77.6-72.2,133.5c0,88.2,71.5,159.6,159.6,159.6c0.1,0,0.2,0,0.3,0s0.2,0,0.3,0c4.6,0,9.1-0.3,13.6-0.7
	C605,891.8,668.9,823.4,668.9,740.1z M464.2,204.7c0-25.1,20.2-45.5,45-45.5c24.8,0,45,20.4,45,45.5v40.6h-68v42.4h68v45h-68v42.4
	h68v45h-68v42.4h68v45h-90.1V204.7z"/>
</svg>
