<svg version="1.1" id="Layer_1" xmlns="http://www.w3.org/2000/svg" x="0" y="0" viewBox="0 0 14.2 18.2" xml:space="preserve"><style>.st0{fill:#767676}</style><path class="st0" d="M10.4 12.9c0 .2-.2.5-.1.7.3 1.3.6 2.6.8 4 0 .2.1.4.1.6H-.1c.3-1.1.4-2.2.6-3.2.2-1.3.4-2.5.6-3.8.1-1 .8-1.5 1.7-1.5h8.7c.8 0 1.5.5 1.7 1.4.4 2.4.7 4.8 1.1 7.2h-2.2c-.1 0-.3-.3-.3-.4-.4-1.6-.7-3.2-1-4.8-.2-.2-.3-.2-.4-.2zM4.1 7.4c-1 1.3-2.3 1.5-3.7.5C2 7.3 1.9 6 1.8 4.7c-.1-.6-.2-1.3-.2-2C1.9.4 4.5-.8 6.4.5c.4.3.8.5 1.3.6 1.7.2 2.9 1.5 3.2 3.2.3 1.5-.5 3.1-1.8 3.9-1.4.8-3.1.7-4.4-.4-.2-.1-.4-.3-.6-.4z"/></svg>